<?xml version="1.0" standalone="no"?>
<!DOCTYPE svg PUBLIC "-//W3C//DTD SVG 20010904//EN"
 "http://www.w3.org/TR/2001/REC-SVG-20010904/DTD/svg10.dtd">
<svg version="1.0" xmlns="http://www.w3.org/2000/svg"
 width="512.000000pt" height="512.000000pt" viewBox="0 0 1000.000000 1000.000000"
 preserveAspectRatio="xMidYMid meet">
<metadata>
Created by potrace 1.15, written by Peter Selinger 2001-2017
</metadata>
<g transform="translate(-20.00000,350.000000) scale(0.200000,-0.200000) rotate(-90)"
fill="#51e0b7" stroke="none">
<path d="M2382 5061 c-27 -32 -85 -107 -128 -166 -216 -295 -286 -387 -347
-460 -51 -61 -67 -87 -67 -111 0 -43 42 -84 86 -84 30 0 42 10 108 88 41 48
129 161 197 252 135 183 246 320 259 320 25 0 193 -144 395 -338 247 -238 269
-253 330 -228 43 18 65 52 65 98 0 48 -48 106 -241 292 -232 223 -479 396
-566 396 -39 0 -46 -4 -91 -59z"/>
<path d="M2343 4460 c-12 -5 -29 -20 -38 -34 -15 -22 -16 -35 -7 -88 6 -35 14
-100 18 -144 3 -45 9 -87 13 -93 12 -18 64 -24 85 -8 16 12 21 33 27 108 4 52
11 119 14 150 7 49 5 58 -16 82 -27 30 -64 40 -96 27z"/>
<path d="M2402 3680 c-45 -19 -55 -68 -50 -258 5 -191 9 -205 68 -205 52 0 59
15 70 166 5 76 12 142 15 147 14 23 -8 105 -36 132 -30 30 -33 31 -67 18z"/>
<path d="M2402 2832 c-74 -12 -70 -217 6 -357 24 -44 31 -50 63 -53 25 -2 40
3 53 17 17 18 17 24 2 93 -8 40 -17 105 -21 143 -9 108 -21 142 -53 152 -15 5
-38 7 -50 5z"/>
<path d="M2420 2063 c-20 -26 -22 -37 -18 -171 3 -137 4 -145 27 -163 27 -22
50 -24 76 -5 14 10 20 33 27 102 4 49 10 116 14 149 5 52 3 64 -16 88 -30 38
-80 38 -110 0z"/>
<path d="M2433 1265 c-12 -9 -26 -35 -33 -66 -11 -45 -10 -62 10 -142 40 -166
84 -225 148 -195 35 17 39 48 17 136 -10 37 -17 87 -16 112 1 62 -16 118 -44
146 -28 28 -52 30 -82 9z"/>
<path d="M2478 551 l-33 -29 -6 -179 c-4 -98 -12 -204 -19 -236 -10 -50 -9
-62 5 -83 19 -30 84 -34 107 -6 50 60 100 413 69 494 -10 28 -56 68 -77 68 -8
0 -28 -13 -46 -29z"/>
</g>
</svg>
