<?xml version="1.0" ?><!DOCTYPE svg  PUBLIC '-//W3C//DTD SVG 1.1//EN'  'http://www.w3.org/Graphics/SVG/1.1/DTD/svg11.dtd'><svg height="45.1556mm" style="shape-rendering:geometricPrecision; text-rendering:geometricPrecision; image-rendering:optimizeQuality; fill-rule:evenodd; clip-rule:evenodd" version="1.1" viewBox="0 0 4168 4516" width="41.6769mm" xml:space="preserve" xmlns="http://www.w3.org/2000/svg" xmlns:xlink="http://www.w3.org/1999/xlink"><defs><style type="text/css">
   <![CDATA[
    .fil0 {fill:#0CCEF5}
    .fil3 {fill:#FB5151}
    .fil4 {fill:white}
    .fil1 {fill:#080A0D;fill-rule:nonzero}
    .fil2 {fill:#90EBBF;fill-rule:nonzero}
   ]]>
  </style></defs><g id="Layer_x0020_1"><g id="_339883056"><circle class="fil0" cx="2079" cy="2570" r="1910"/><path class="fil1" d="M2079 625c537,0 1023,218 1375,570 352,352 570,838 570,1375 0,538 -218,1024 -570,1376 -352,352 -838,570 -1375,570 -537,0 -1024,-218 -1376,-570 -352,-352 -569,-838 -569,-1376 0,-537 217,-1023 569,-1375 352,-352 839,-570 1376,-570zm1325 620c-339,-339 -808,-549 -1325,-549 -518,0 -987,210 -1326,549 -339,339 -549,808 -549,1325 0,518 210,987 549,1326 339,339 808,549 1326,549 517,0 986,-210 1325,-549 339,-339 549,-808 549,-1326 0,-517 -210,-986 -549,-1325z"/><path class="fil2" d="M850 1109l225 68 214 -183 428 183 -122 244 -122 -122 -123 61 -183 -61 -122 122c0,0 356,172 353,189 -3,17 14,117 14,117l-245 61 -244 122 -61 245 -184 -61 -183 0c0,0 -96,138 -61,183 35,45 252,60 252,60l114 184 306 -61 428 428 183 306 -245 243 -183 62 61 428 123 244 -367 -183 -122 -367 -61 -427 -245 -184 0 -305 -183 -245 -183 0 -125 -152c66,-479 310,-902 663,-1199z"/><path class="fil1" d="M860 1075l207 63 199 -171c11,-9 25,-11 37,-6l428 184c18,7 26,28 19,46 -1,1 -2,2 -2,4l-122 242c-8,17 -29,24 -47,16 -3,-2 -6,-4 -9,-7l0 0 -104 -104 -100 50c-8,4 -18,5 -27,2l0 0 -162 -55 -72 73c100,49 334,170 328,204l0 0c-2,14 13,105 13,105 4,19 -9,37 -27,41l-240 59 -226 113 -57 229c-5,19 -24,31 -43,26 -2,-1 -4,-1 -5,-2l-175 -58 -159 0c-21,33 -67,108 -52,126l0 0c25,33 226,47 227,47 12,1 23,8 28,18l100 162 282 -56c12,-3 24,1 32,9l0 1 428 427c3,3 5,6 6,9l182 304c9,14 6,31 -5,43l0 0 -246 243c-4,4 -8,7 -13,9l0 0 -155 52 57 394 119 239c9,17 2,38 -16,47 -10,5 -21,5 -31,0l-367 -183c-8,-5 -14,-12 -17,-21l-123 -366c0,-3 -1,-5 -1,-7l0 0 -59 -413 -233 -174c-9,-7 -14,-18 -14,-29l0 0 0 -294 -166 -220 -165 0c-12,0 -23,-6 -29,-16l-123 -150c-7,-8 -9,-18 -8,-27l0 0c33,-241 111,-468 223,-672 116,-210 270,-396 452,-549 9,-8 22,-10 33,-7l0 0zm205 136l-207 -63c-169,145 -312,320 -421,517 -106,193 -180,406 -213,633l104 127 167 0 0 0c11,0 21,5 28,14l182 242c5,6 9,15 9,24l0 288 228 171c8,6 14,14 16,25l60 425 117 349 259 130 -74 -148c-2,-4 -4,-8 -4,-13l-62 -428c-2,-16 8,-33 24,-38l175 -60 220 -218 -167 -278 -412 -411 -287 57 0 0c-14,3 -29,-3 -36,-16l-105 -169c-56,-5 -223,-25 -260,-72l0 0 0 0c-49,-64 50,-211 59,-224 6,-10 17,-17 30,-17l183 0 0 1c4,0 8,0 11,1l148 49 51 -207 1 0c2,-10 8,-18 18,-23l242 -121c3,-2 6,-3 10,-4l213 -53c-4,-30 -10,-72 -9,-91 0,-2 0,-4 0,-6 2,-8 -289,-132 -329,-149 -5,-2 -10,-5 -14,-9 -14,-14 -14,-36 0,-50l122 -122 0 0c9,-9 23,-13 36,-8l170 56 107 -53c14,-8 31,-6 43,5l87 88 84 -167 -373 -160 -196 168c-9,8 -22,11 -35,8z"/><path class="fil2" d="M3391 1183l-700 123 -240 -68 -245 183 61 184 -305 244 122 184 -306 244 122 367 367 61 61 244 123 184 -62 488 428 -122 -61 -611 245 -183 183 -61 -245 -245 306 61 0 -183 -122 -183 122 -123 306 245 -62 183 245 306 61 -367 122 -61 55 39c-59,-444 -271,-840 -581,-1133z"/><path class="fil1" d="M3380 1221l-683 120c-6,1 -12,0 -17,-2l-222 -62 -211 157 54 160c5,15 -1,31 -14,40l-278 222 104 157c11,16 7,38 -9,49l-285 227 108 323 346 58c14,2 25,13 28,26l0 0 60 239 119 178c5,7 6,16 5,24l1 0 -55 436 348 -100 -58 -581c-1,-14 5,-26 15,-33l243 -182c4,-3 8,-5 12,-6l128 -43 -205 -204c-13,-14 -13,-36 0,-50 9,-8 21,-12 32,-9l264 52 0 -129 -116 -175c-10,-14 -8,-32 4,-44l0 0 122 -122c13,-14 35,-14 49,-2l303 243c12,10 16,25 12,39l0 0 -55 165 183 229 48 -289c2,-11 10,-21 19,-25l0 0 123 -62c7,-3 15,-4 23,-2 -33,-187 -93,-363 -177,-526 -95,-186 -220,-353 -368,-496zm-687 49l692 -122 0 0c10,-2 22,1 30,9 160,152 294,330 396,528 98,192 166,404 196,627l0 0c1,8 -1,17 -7,25 -11,16 -33,19 -49,8l-37 -27 -87 44 -58 349 0 0c-2,8 -6,16 -13,21 -15,12 -37,10 -50,-5l-243 -305c-8,-9 -11,-22 -7,-34l54 -160 -262 -210 -80 80 105 157c4,6 7,14 7,22l0 183 0 0c0,3 0,5 0,7 -4,19 -23,32 -42,28l-191 -38 162 162 0 0c3,4 6,8 8,14 6,18 -4,38 -22,44l-178 59 -224 168 59 590c3,17 -8,34 -25,39l-427 122c-5,2 -10,2 -15,1 -19,-2 -33,-19 -31,-39l60 -476 -114 -171c-3,-3 -5,-8 -6,-12l-55 -222 -344 -58 0 0c-13,-2 -24,-10 -28,-23l-122 -367 0 0c-5,-13 0,-29 11,-38l281 -225 -105 -156 0 0c-10,-15 -7,-36 8,-47l286 -229 -53 -161 0 0c-5,-13 0,-29 12,-39l243 -182c8,-7 20,-10 32,-7l233 66z"/><path class="fil3" d="M3722 652c227,0 410,183 410,410 0,62 -13,120 -38,173l-372 801 -372 -801c-25,-53 -39,-111 -39,-173 0,-227 184,-410 411,-410z"/><path class="fil1" d="M3722 616c123,0 234,50 315,131 81,81 131,192 131,315 0,33 -4,65 -11,96l0 0c-7,32 -17,63 -31,92l-372 801c-8,17 -29,25 -47,17 -8,-4 -14,-10 -17,-17l0 0 -372 -801c-14,-29 -24,-60 -31,-92 -1,-1 -1,-2 -1,-3 -6,-30 -10,-61 -10,-93 0,-123 50,-234 131,-315 80,-81 192,-131 315,-131zm265 181c-68,-68 -161,-110 -265,-110 -104,0 -197,42 -265,110 -68,68 -110,161 -110,265 0,27 3,53 8,78 0,1 0,2 1,3 5,27 14,53 26,77l340 732 340 -732c12,-24 20,-50 26,-77l0 0 0 0c6,-26 9,-53 9,-81 0,-104 -42,-197 -110,-265z"/><circle class="fil4" cx="3722" cy="1030" r="146"/><path class="fil1" d="M3722 848c50,0 95,21 128,53 33,33 54,79 54,129 0,50 -21,95 -54,128 -33,33 -78,53 -128,53 -50,0 -96,-20 -128,-53 -33,-33 -54,-78 -54,-128 0,-50 21,-96 54,-129 32,-32 78,-53 128,-53zm78 103c-20,-20 -47,-32 -78,-32 -31,0 -59,12 -79,32 -20,20 -32,48 -32,79 0,31 12,58 32,78 20,20 48,33 79,33 31,0 58,-13 78,-33 21,-20 33,-47 33,-78 0,-31 -12,-59 -33,-79z"/><path class="fil3" d="M598 35c311,0 564,252 564,563 0,85 -19,165 -53,238l-511 1098 -510 -1098c-34,-73 -53,-153 -53,-238 0,-311 252,-563 563,-563z"/><path class="fil1" d="M598 0c331,0 599,268 599,598 0,44 -5,88 -14,129l0 1c-10,42 -24,83 -42,122l-511 1099c-8,18 -29,26 -46,17 -8,-3 -14,-9 -18,-17l0 0 -510 -1099c-19,-39 -33,-80 -42,-122 0,-1 0,-3 -1,-4 -8,-41 -13,-83 -13,-126 0,-330 268,-598 598,-598zm528 598c0,-291 -236,-527 -528,-527 -291,0 -527,236 -527,527 0,39 4,76 11,112 0,0 1,1 1,2 8,38 21,75 37,109l478 1030 479 -1030c16,-34 29,-71 37,-109l0 0 0 0c8,-36 12,-74 12,-114z"/><path class="fil1" d="M1494 363c-18,8 -38,0 -46,-18 -8,-17 0,-38 18,-46l0 0 1 -1 0 0 1 0 1 -1 1 0 1 0 1 -1 1 0 1 -1 1 0 1 -1 2 0 1 -1 2 -1 2 0 1 -1 2 -1 2 -1 2 -1 2 0 2 -1 2 -1 2 -1 3 -1 2 -1 3 -1 2 -1 3 -1 2 -1 3 -1 3 -1 3 -1 3 -1 3 -2 3 -1 3 -1 3 -1 4 -1 3 -2 3 -1 4 -1 3 -1 4 -2 4 -1 4 -1 3 -2 4 -1 4 -1 4 -2 4 -1 4 -1 5 -2 4 -1 3 -1c19,-6 39,4 45,22 6,19 -4,39 -23,45l-3 1 -4 1 -4 2 -4 1 -4 1 -4 2 -4 1 -4 1 -3 1 -4 2 -3 1 -4 1 -3 1 -4 2 -3 1 -3 1 -3 1 -3 1 -3 1 -3 1 -3 2 -3 1 -3 1 -2 1 -3 1 -2 1 -3 1 -2 1 -3 1 -2 0 -2 1 -2 1 -2 1 -2 1 -2 1 -2 0 -2 1 -1 1 -2 1 -2 0 -1 1 -1 0 -2 1 -1 1 -1 0 -1 0 -1 1 -1 0 -1 1 -1 0 0 0 -1 1 -1 0 0 0 -1 0zm1771 167c15,12 17,34 5,49 -12,15 -34,18 -49,6l-10 -8 -9 -7 -10 -7 -9 -8 -10 -7 -9 -7 -10 -6 -9 -7 -4 -3c-16,-11 -20,-33 -9,-49 12,-16 34,-20 49,-9l5 3 10 7 10 7 9 8 10 7 10 8 10 7 10 8 10 8zm-267 -177c17,10 24,31 14,48 -9,17 -30,24 -47,15l-1 -1 -9 -5 -10 -5 -9 -4 -10 -5 -9 -5 -10 -5 -9 -4 -10 -5 -9 -4 -10 -5 -9 -4 -10 -4 -9 -4 0 0c-18,-8 -27,-29 -19,-47 7,-17 28,-26 46,-18l1 0 10 4 10 5 10 4 9 5 10 4 10 5 10 5 10 5 10 5 10 5 10 5 10 5 10 5 0 0zm-333 -135c18,6 29,25 24,44 -5,19 -25,30 -44,24l-1 0 -9 -3 -9 -2 -10 -3 -9 -2 -9 -2 -9 -3 -9 -2 -9 -2 -10 -2 -9 -2 -9 -2 -9 -2 -9 -2 -9 -2 -5 -1c-19,-3 -31,-22 -28,-41 4,-19 22,-31 41,-28l5 1 10 2 9 2 10 2 9 2 10 2 9 2 10 3 10 2 9 2 10 3 9 2 10 3 10 2 9 3 2 0zm-355 -60c20,1 34,18 33,37 -1,20 -18,34 -37,33l-2 0 -8 0 -9 -1 -8 0 -9 -1 -8 0 -9 0 -8 -1 -8 0 -9 0 -8 0 -8 0 -8 0 -9 0 -8 0 -8 0 -8 0 -3 0c-20,0 -36,-15 -36,-35 -1,-19 15,-35 34,-36l4 0 9 0 8 0 8 0 9 0 9 0 8 0 9 0 8 1 9 0 9 0 9 0 8 1 9 0 9 1 9 0 9 1 1 0zm-359 12c20,-3 37,11 40,30 2,19 -11,37 -31,40l-3 0 -7 1 -7 1 -7 1 -7 1 -7 1 -7 1 -6 1 -7 1 -7 1 -7 1 -6 1 -7 2 -7 1 -6 1 -7 1 -6 1 -6 2 -7 1 -6 1 -6 1c-19,4 -38,-8 -42,-27 -4,-19 9,-38 28,-42l6 -1 7 -1 6 -2 7 -1 6 -1 7 -1 7 -2 7 -1 7 -1 7 -1 7 -1 7 -2 7 -1 7 -1 7 -1 7 -1 7 -1 8 -1 7 -1 7 -1 3 0z"/><path class="fil1" d="M3195 362c-3,-19 9,-38 28,-41 19,-4 38,9 42,28l44 226c4,19 -8,38 -27,41l-1 1 -241 51c-19,4 -38,-8 -42,-27 -4,-19 8,-38 27,-42l209 -44 -39 -193z"/><circle class="fil4" cx="598" cy="614" r="245"/><path class="fil1" d="M598 334c78,0 148,31 198,82 51,50 82,120 82,198 0,77 -31,147 -82,197 -50,51 -120,82 -198,82 -77,0 -147,-31 -197,-82 -51,-50 -82,-120 -82,-197 0,-78 31,-148 82,-198 50,-51 120,-82 197,-82zm148 132c-37,-38 -90,-62 -148,-62 -57,0 -110,24 -148,62 -37,37 -61,90 -61,148 0,57 24,110 61,148 38,37 91,61 148,61 58,0 111,-24 148,-61 38,-38 62,-91 62,-148 0,-58 -24,-111 -62,-148z"/><path class="fil1" d="M1462 116c6,-19 26,-29 45,-23 18,7 28,26 22,45l-69 205 170 135c15,12 18,35 6,50 -12,15 -34,18 -49,6l-189 -150c-12,-8 -18,-24 -13,-40l77 -228z"/></g></g></svg>