<?xml version="1.0" ?><!DOCTYPE svg  PUBLIC '-//W3C//DTD SVG 1.1//EN'  'http://www.w3.org/Graphics/SVG/1.1/DTD/svg11.dtd'><svg height="35.7115mm" style="shape-rendering:geometricPrecision; text-rendering:geometricPrecision; image-rendering:optimizeQuality; fill-rule:evenodd; clip-rule:evenodd" version="1.1" viewBox="0 0 803 635" width="45.1529mm" xml:space="preserve" xmlns="http://www.w3.org/2000/svg" xmlns:xlink="http://www.w3.org/1999/xlink"><defs><style type="text/css">
   <![CDATA[
    .fil3 {fill:#FFDD6E}
    .fil1 {fill:#080A0D;fill-rule:nonzero}
    .fil2 {fill:#90EBBF;fill-rule:nonzero}
    .fil0 {fill:#EAEAEA;fill-rule:nonzero}
   ]]>
  </style></defs><g id="Layer_x0020_1"><g id="_353383504"><path class="fil0" d="M701 17c-100,-27 -193,-4 -278,70 -13,11 -30,11 -42,0 -86,-74 -179,-97 -279,-70 -4,1 -7,4 -10,7l-27 41 1 2c2,-2 4,-3 7,-4 106,-26 204,4 293,91l71 0c89,-87 187,-117 293,-91 3,1 5,2 7,4l0 -2 -26 -41c-2,-3 -6,-6 -10,-7z"/><path class="fil1" d="M700 23c-49,-13 -97,-14 -142,-3 -46,12 -89,36 -131,72 -8,6 -17,9 -25,9 -9,0 -18,-3 -25,-9 -42,-36 -86,-60 -132,-72 -45,-11 -92,-10 -142,3l0 0c-1,1 -2,1 -3,2 -1,1 -2,2 -2,3l-19 27c52,-11 101,-10 149,5 49,15 96,44 141,88l65 0c45,-44 92,-73 141,-88 48,-15 97,-16 148,-5l-17 -27c-1,-1 -2,-2 -3,-3 -1,-1 -2,-1 -3,-2l0 0zm-145 -15c47,-12 97,-11 148,3l0 0 0 0c3,1 5,2 8,4 2,1 4,4 5,6l26 41c1,1 2,2 1,3l0 2 0 0c0,2 0,3 -1,4 -3,3 -6,3 -9,1 -1,-1 -1,-1 -2,-2l0 0c-1,0 -1,0 -2,-1l0 0c-52,-13 -102,-12 -150,3 -48,15 -94,43 -137,86 -2,1 -3,2 -5,2l-71 0 0 0c-1,0 -3,0 -4,-2 -44,-42 -90,-71 -138,-86 -48,-15 -97,-16 -149,-3l0 0 -1 0c0,1 -1,1 -2,1 -1,1 -1,1 -2,2 -1,1 -2,1 -4,2 -3,0 -6,-3 -7,-6l0 -2c0,-2 0,-3 1,-4l27 -41c2,-3 3,-5 6,-6 2,-2 4,-3 7,-4l0 0c51,-14 101,-15 148,-3 48,12 93,37 137,74 5,5 11,7 17,7 6,0 11,-2 16,-7 44,-37 89,-62 137,-74z"/><path class="fil1" d="M64 66c0,-4 3,-7 6,-7 1,0 1,0 2,0 1,-1 3,-1 5,-2l0 0c54,-13 106,-12 156,3 50,15 97,45 143,89 2,3 2,7 0,9 -3,3 -7,3 -9,0 -44,-42 -90,-71 -138,-86 -47,-15 -97,-16 -149,-3l0 0 0 0c-1,1 -2,1 -3,1 -1,1 -1,1 -2,2 -1,1 -2,1 -4,2 -3,0 -6,-3 -7,-6l0 -2z"/><path class="fil2" d="M78 63c104,-25 202,4 293,91l0 455c-98,-70 -194,-104 -287,-90 -5,0 -9,-1 -13,-4 -4,-4 -6,-8 -6,-13l0 -422c0,-8 6,-15 13,-17z"/><path class="fil1" d="M77 57c53,-12 104,-12 154,4 50,15 98,44 145,88 1,2 2,3 2,5l0 0 0 455c0,4 -3,7 -7,7 -1,0 -2,-1 -3,-2 -49,-34 -97,-60 -144,-76 -47,-15 -93,-20 -139,-13 -3,0 -6,0 -10,-1 -3,-1 -6,-2 -8,-5 0,0 0,0 0,0 -3,-2 -5,-5 -6,-8 -1,-3 -2,-6 -2,-9l0 -422c0,-5 2,-10 5,-14 3,-5 7,-8 13,-9 0,0 0,0 0,0zm150 15c-47,-14 -97,-15 -147,-3l0 0c-3,1 -5,2 -6,4 -1,2 -2,4 -2,7l0 422c0,1 0,3 1,4 0,2 1,3 2,4l0 0c2,1 3,2 4,2 1,1 3,1 4,0 48,-7 96,-1 145,14 45,15 91,39 137,71l0 -440c-44,-42 -90,-70 -138,-85z"/><path class="fil1" d="M731 59c1,0 1,0 2,0 3,0 6,3 5,7l0 2c0,3 -3,6 -6,6 -2,-1 -3,-1 -5,-2 0,-1 -1,-1 -1,-2 -1,0 -2,0 -3,-1l0 0 0 0c-52,-13 -102,-12 -150,3 -48,15 -93,44 -137,86 -3,3 -7,3 -9,0 -3,-2 -3,-6 0,-9 45,-44 93,-74 143,-89 50,-15 102,-16 156,-3l0 0c2,1 4,1 5,2z"/><path class="fil2" d="M725 63c-122,-26 -216,13 -294,91l0 455c99,-70 195,-104 287,-90 5,0 10,-1 14,-4 3,-4 5,-8 5,-13l0 -422c0,-8 -5,-15 -12,-17z"/><path class="fil1" d="M723 69c-59,-13 -112,-9 -159,7 -47,15 -88,43 -126,80l0 441c46,-32 92,-56 137,-71 49,-15 97,-21 144,-14 2,1 3,1 5,0 1,0 2,-1 3,-2l1 0c1,-1 1,-2 2,-4 1,-1 1,-3 1,-4l0 -422c0,-3 -1,-5 -2,-7 -2,-2 -3,-3 -6,-4l0 0zm-163 -5c49,-17 104,-20 166,-7l0 0 0 0c5,1 10,4 13,9 3,4 4,9 4,14l0 422c0,3 0,6 -1,9 -2,3 -4,6 -6,8 0,0 0,0 0,0 -3,3 -6,4 -9,5 -3,1 -6,1 -9,1 -46,-7 -92,-2 -139,13 -47,16 -95,42 -144,76 -1,1 -2,2 -4,2 -3,0 -6,-3 -6,-7l0 -455 0 0c0,-2 1,-3 2,-5 40,-39 83,-69 133,-85z"/><path class="fil2" d="M431 154l-59 0 0 455c19,27 39,25 60,0l-1 -455z"/><path class="fil1" d="M425 160l-47 0 0 447c8,11 16,16 23,15 8,0 16,-5 24,-15l0 -447zm-53 -12l59 0 0 0c4,0 7,2 7,6l0 455 0 0c0,2 -1,3 -2,4 -11,14 -23,21 -35,22 -12,0 -23,-7 -34,-22l0 0c-1,-1 -2,-2 -2,-4l0 -455c0,0 0,0 0,0 0,-4 3,-6 7,-6z"/><path class="fil3" d="M30 212l81 1c11,0 20,10 20,21l0 0c0,11 -9,20 -20,20l-82 -2c-11,0 -20,-9 -19,-20l0 0c0,-11 9,-20 20,-20z"/><path class="fil1" d="M30 206l81 1 0 0 0 0c1,0 1,0 1,0 7,0 13,3 18,8l0 0c5,5 8,11 7,19l0 0 0 0 0 0c0,0 0,0 0,0 0,8 -3,14 -8,18 -5,5 -11,8 -18,8l-82 -1 0 0 0 0c0,0 0,0 0,0 -7,-1 -14,-4 -18,-8 0,-1 0,-1 -1,-1 -4,-5 -7,-11 -7,-18l0 0 0 0 0 0c0,0 0,-1 0,-1 1,-7 4,-13 8,-18 5,-5 12,-7 19,-7zm81 13l-81 -1c-4,0 -7,2 -10,4 -2,3 -4,6 -4,10l0 0 0 0 0 0 0 0 0 0 0 0c0,4 1,7 3,10l1 0c2,2 5,4 9,4l0 0 0 0 0 0 0 0 1 0 81 1c4,0 7,-1 10,-4 2,-2 4,-5 4,-9l0 0 0 0 0 0 0 0 0 0 0 0c0,-4 -1,-8 -4,-10l0 0 0 0c-2,-3 -6,-4 -9,-5l-1 0 0 0 0 0 0 0 0 0z"/><path class="fil3" d="M27 252l94 2c12,0 21,9 20,20l0 0c0,11 -9,20 -20,20l-95 -1c-11,0 -20,-9 -20,-21l0 0c0,-11 10,-20 21,-20z"/><path class="fil1" d="M27 246l95 2 0 0 0 0 0 0c7,0 13,3 18,8 5,4 8,11 8,18l0 0 0 0 0 0c-1,8 -4,14 -9,19 -4,5 -11,8 -18,7l-95 -1 0 0 0 0 0 0c-7,0 -14,-3 -19,-8 -4,-5 -7,-11 -7,-19l0 0 0 0 0 0c0,-7 3,-14 8,-18 5,-5 12,-8 19,-8zm94 14l-94 -1c-4,0 -8,1 -10,4 -3,2 -4,6 -5,10l0 0c0,3 2,7 4,9 3,3 6,5 10,5l0 0 95 1c4,0 7,-2 10,-4 2,-3 4,-6 4,-10l0 0c0,-4 -1,-7 -4,-10 -2,-2 -6,-4 -10,-4l0 0z"/><path class="fil3" d="M49 293l80 1c12,1 21,10 20,21l0 0c0,11 -9,20 -20,20l-80 -1c-12,0 -20,-10 -20,-21l0 0c0,-11 9,-20 20,-20z"/><g><path class="fil1" d="M49 287l80 1 0 0 0 0c1,0 1,0 1,0 7,1 14,4 18,8 5,5 8,12 8,19l0 0 0 0 0 0c0,0 0,1 0,1 -1,7 -4,13 -9,18l0 0c-4,4 -11,7 -18,7l-80 -1 0 0 0 0c-1,0 -1,0 -1,0 -7,0 -14,-3 -18,-8 0,0 0,0 0,0 -5,-5 -8,-12 -8,-19l0 0 0 0 0 0c0,0 0,0 0,-1 1,-7 4,-13 9,-18 4,-4 11,-7 18,-7zm80 14l-80 -1c-4,-1 -7,1 -10,3 -2,3 -4,6 -4,10l0 0 0 0 0 0 0 0 0 0 0 0c0,4 1,7 4,10l0 0c2,3 6,4 9,4l1 0 0 0 0 0 0 0 0 0 80 2c4,0 7,-2 10,-4l0 0c2,-3 4,-6 4,-10l0 0 0 0 0 0 0 0 0 0 0 0c0,-4 -1,-7 -4,-10 -2,-2 -6,-4 -9,-4l-1 0 0 0 0 0 0 0 0 0zm10 24l0 0 0 0z"/></g><path class="fil3" d="M73 334l68 1c12,0 21,10 20,21l0 0c0,11 -9,20 -20,20l-69 -2c-11,0 -20,-9 -20,-20l0 0c1,-11 10,-20 21,-20z"/><path class="fil1" d="M74 328l68 1c7,0 13,3 18,8l0 0c5,5 8,11 8,19l0 0 0 0 0 0c0,0 0,0 0,1 -1,7 -4,13 -8,17 -5,5 -12,8 -19,8l0 0 0 0c0,0 -1,0 -1,0l-68 -1c-7,0 -14,-4 -18,-8 -5,-5 -8,-12 -8,-19l0 0 0 0 0 0c0,0 0,-1 0,-1 1,-7 4,-13 8,-18l0 0c5,-4 12,-7 19,-7l0 0 0 0c0,0 0,0 1,0zm67 13l-68 -1c0,0 0,0 0,0l0 0 0 0 0 0 0 0c-4,0 -7,2 -10,4 -2,3 -4,6 -4,10l0 0 0 0 0 0 0 0 0 0 0 0c0,4 1,7 4,10 2,3 6,4 9,4l68 1c1,0 1,0 1,0l0 0 0 0 0 0 0 0c4,0 7,-1 10,-4 2,-2 4,-5 4,-9l0 0 0 0 0 0 0 0 0 0 0 0c0,-4 -1,-8 -4,-10 -2,-3 -6,-5 -10,-5z"/><path class="fil3" d="M773 259l-82 1c-11,0 -20,10 -20,21l0 0c1,11 10,20 21,20l81 -2c11,0 20,-9 20,-20l0 0c0,-11 -9,-20 -20,-20z"/><path class="fil1" d="M773 265l-82 2 0 0 0 0 0 0 0 0 0 0c-4,0 -7,1 -9,4 -3,2 -4,6 -4,10l0 0 0 0 0 0 0 0 0 0 0 0c0,4 2,7 4,10 3,2 6,4 10,3l81 -1 0 0 0 0 0 0 0 0 1 0c3,0 7,-2 9,-4l0 0c3,-3 4,-6 4,-10l0 0 0 0 0 0 0 0 0 0 0 0c0,-4 -2,-7 -4,-10 -3,-2 -7,-4 -10,-4zm-82 -11l81 -1c8,0 14,3 19,7l0 0c5,5 8,11 8,18 0,0 0,1 0,1l0 0 0 0 0 0c0,7 -2,13 -7,18 0,0 0,1 0,1 -5,4 -11,7 -18,8 0,0 0,0 -1,0l0 0 0 0 -81 1c-7,0 -14,-3 -19,-8 -4,-4 -7,-10 -8,-17 0,-1 0,-1 0,-1l0 0 0 0 0 0c0,-7 3,-14 8,-19 4,-5 11,-8 18,-8 0,0 0,0 0,0l0 0 0 0z"/><path class="fil3" d="M776 302l-95 1c-11,0 -20,10 -20,21l0 0c1,11 10,20 21,20l95 -2c11,0 20,-9 19,-20l0 0c0,-11 -9,-20 -20,-20z"/><path class="fil1" d="M776 308l-95 2 0 0c-4,0 -7,1 -9,4 -3,2 -4,6 -4,10l0 0c0,4 1,7 4,10 3,2 6,4 10,4l95 -2 0 0c3,0 7,-1 9,-4 3,-3 4,-6 4,-10l0 0c0,-4 -2,-7 -4,-10 -3,-2 -6,-4 -10,-4zm-95 -11l95 -1c7,0 14,3 19,7 4,5 7,11 8,19l0 0 0 0 0 0 0 0c0,7 -3,14 -8,19 -4,5 -11,8 -18,8l0 0 0 0 0 0 -95 1c-7,0 -14,-3 -19,-7l0 0c-5,-5 -8,-12 -8,-19l0 0 0 0 0 0 0 0c0,-7 3,-14 8,-19 4,-5 11,-8 18,-8l0 0 0 0 0 0z"/><path class="fil3" d="M753 343l-80 1c-11,0 -20,9 -20,21l0 0c1,11 10,20 21,19l80 -1c11,0 20,-9 20,-20l0 0c0,-11 -9,-20 -21,-20z"/><g><path class="fil1" d="M753 349l-80 1 0 0 0 0 0 0 0 0 0 0c-4,0 -7,2 -9,4 -3,3 -4,7 -4,10l0 0 0 0 0 0 0 1 0 0 0 0c0,3 1,7 4,9 2,3 6,4 10,4l80 -1 0 0 0 0 0 0 0 0 0 0c4,0 7,-2 10,-4l0 0c2,-3 4,-6 4,-10l0 0 0 0 0 0 0 0 0 0 0 -1c0,-3 -2,-7 -5,-9 -2,-3 -6,-4 -10,-4zm-80 -11l80 -2c8,0 14,3 19,8 5,5 8,11 8,18 0,0 0,0 0,1l0 0 0 0 0 0c0,7 -3,13 -7,18l0 0c-5,5 -11,8 -18,8 0,0 -1,0 -1,0l0 0 0 0 -80 2c-7,0 -14,-3 -19,-8 -5,-4 -8,-11 -8,-18 0,0 0,0 0,0l0 0 0 -1 0 0c0,-7 3,-13 8,-18 4,-5 10,-8 17,-8 1,0 1,0 1,0l0 0 0 0zm91 35l0 0 0 0z"/></g><path class="fil3" d="M730 383l-69 2c-11,0 -20,9 -20,20l0 0c0,11 10,20 21,20l68 -1c11,0 20,-10 20,-21l0 0c0,-11 -9,-20 -20,-20z"/><g><path class="fil1" d="M730 390l0 0 0 0 0 0c-1,0 -1,0 -1,0l-68 1c-4,0 -7,2 -9,4l-1 0c-2,3 -4,6 -3,10l0 0 0 0 0 0 0 0 0 0 0 1c0,3 1,7 4,9 2,2 6,4 10,4l0 0 0 0 0 0 0 0c0,0 0,0 0,0l68 -1c4,0 7,-2 10,-5l0 0c2,-2 4,-6 4,-10l0 0 0 0 0 0 0 0 0 0 0 0c0,-4 -2,-7 -4,-9 -3,-3 -6,-4 -10,-4l0 0zm-69 -12l68 -1c0,0 0,0 1,0l0 0 0 0c7,0 14,3 18,8 5,4 8,11 8,18 0,0 0,0 0,0l0 0 0 0 0 0c1,8 -2,14 -7,19l0 0c-5,5 -11,8 -19,8l-67 1c-1,0 -1,0 -1,0l0 0 0 0c-7,0 -14,-2 -19,-7 -5,-5 -8,-11 -8,-18 0,0 0,0 0,-1l0 0 0 0 0 0c0,-7 3,-14 7,-18l1 0c4,-5 11,-8 18,-9zm-10 17l0 0 0 0zm89 18l0 0 0 0z"/></g></g></g></svg>