<?xml version="1.0" ?><!DOCTYPE svg  PUBLIC '-//W3C//DTD SVG 1.1//EN'  'http://www.w3.org/Graphics/SVG/1.1/DTD/svg11.dtd'><svg height="45.1556mm" style="shape-rendering:geometricPrecision; text-rendering:geometricPrecision; image-rendering:optimizeQuality; fill-rule:evenodd; clip-rule:evenodd" version="1.1" viewBox="0 0 1246 1246" width="45.1623mm" xml:space="preserve" xmlns="http://www.w3.org/2000/svg" xmlns:xlink="http://www.w3.org/1999/xlink"><defs><style type="text/css">
   <![CDATA[
    .fil1 {fill:#080A0D;fill-rule:nonzero}
    .fil0 {fill:#0CCEF5;fill-rule:nonzero}
    .fil2 {fill:#FB5151;fill-rule:nonzero}
   ]]>
  </style></defs><g id="Layer_x0020_1"><g id="_196091440"><path class="fil0" d="M923 1176c0,33 -27,60 -60,60l-724 0c-33,0 -60,-27 -60,-60l0 -1106c0,-33 27,-60 60,-60l724 0c33,0 60,61 60,94l0 1072z"/><path class="fil1" d="M933 1176c0,19 -8,37 -21,49 -12,13 -30,21 -49,21l-724 0c-19,0 -37,-8 -49,-21l0 0 0 0c-13,-12 -21,-30 -21,-49l0 -1106c0,-19 8,-37 21,-49l0 0 0 0 0 0c12,-13 30,-21 49,-21l724 0c18,0 35,14 47,33 14,22 23,51 23,71l0 1072zm-34 36c9,-10 14,-22 14,-36l0 -1072c0,-17 -7,-41 -19,-60 -9,-14 -20,-25 -31,-25l-724 0c-14,0 -26,6 -36,15l0 0c-9,9 -15,22 -15,36l0 1106c0,14 6,26 15,36l0 0c10,9 22,14 36,14l724 0c14,0 26,-5 36,-14z"/><path class="fil1" d="M281 283c-5,0 -9,-4 -9,-9 0,-6 4,-10 9,-10l440 0c5,0 9,4 9,10 0,5 -4,9 -9,9l-440 0z"/><path class="fil1" d="M281 443c-5,0 -9,-4 -9,-10 0,-5 4,-9 9,-9l440 0c5,0 9,4 9,9 0,6 -4,10 -9,10l-440 0z"/><path class="fil1" d="M281 603c-5,0 -9,-5 -9,-10 0,-5 4,-10 9,-10l440 0c5,0 9,5 9,10 0,5 -4,10 -9,10l-440 0z"/><path class="fil1" d="M281 762c-5,0 -9,-4 -9,-9 0,-6 4,-10 9,-10l440 0c5,0 9,4 9,10 0,5 -4,9 -9,9l-440 0z"/><path class="fil1" d="M281 913c-5,0 -9,-5 -9,-10 0,-5 4,-10 9,-10l276 0c5,0 10,5 10,10 0,5 -5,10 -10,10l-276 0z"/><path class="fil1" d="M10 303c-6,0 -10,-4 -10,-9 0,-6 4,-10 10,-10l131 0c5,0 10,4 10,10 0,5 -5,9 -10,9l-131 0z"/><path class="fil1" d="M10 443c-6,0 -10,-4 -10,-10 0,-5 4,-9 10,-9l131 0c5,0 10,4 10,9 0,6 -5,10 -10,10l-131 0z"/><path class="fil1" d="M10 583c-6,0 -10,-5 -10,-10 0,-5 4,-10 10,-10l131 0c5,0 10,5 10,10 0,5 -5,10 -10,10l-131 0z"/><path class="fil1" d="M10 722c-6,0 -10,-4 -10,-9 0,-6 4,-10 10,-10l131 0c5,0 10,4 10,10 0,5 -5,9 -10,9l-131 0z"/><path class="fil2" d="M1199 633l-380 359 -178 60 79 -180 380 -359c87,-82 193,31 99,120z"/><path class="fil1" d="M1206 640l-380 359c-1,1 -3,2 -4,2l-178 60c-5,2 -11,-1 -13,-6 -1,-2 0,-5 1,-7l79 -179c1,-2 2,-3 3,-4l0 0 379 -359c0,0 0,0 1,0 33,-32 70,-37 99,-26 12,5 22,12 30,21 9,9 15,20 19,32 10,32 2,71 -36,107zm-392 343l379 -357c31,-30 38,-62 30,-87 -3,-9 -7,-18 -14,-25 -6,-7 -14,-12 -23,-16 -23,-8 -52,-4 -79,22l-1 0 -378 358 -70 158 156 -53z"/><path class="fil1" d="M10 862c-6,0 -10,-4 -10,-10 0,-5 4,-9 10,-9l131 0c5,0 10,4 10,9 0,6 -5,10 -10,10l-131 0z"/><path class="fil1" d="M10 1002c-6,0 -10,-4 -10,-10 0,-5 4,-10 10,-10l131 0c5,0 10,5 10,10 0,6 -5,10 -10,10l-131 0z"/><path class="fil1" d="M1200 619c25,-25 31,-54 24,-78 -2,-11 -8,-20 -15,-28 -7,-7 -15,-13 -25,-16 -22,-7 -51,-1 -82,27l98 95zm43 -83c9,32 0,72 -37,104 -4,4 -10,4 -13,0l-111 -109c-4,-4 -4,-10 -1,-14 39,-39 78,-48 109,-38 13,4 25,11 34,21 9,10 15,22 19,36z"/><path class="fil1" d="M822 1001l-178 60c-5,2 -11,-1 -13,-6 -1,-2 0,-5 1,-7l79 -179c3,-5 8,-8 13,-5 2,0 3,1 4,2l0 0 99 120c3,4 2,10 -2,13 -1,1 -2,2 -3,2zm-164 35l145 -49 -80 -96 -65 145z"/><path class="fil1" d="M842 918c-4,4 -10,4 -14,0 -3,-4 -3,-10 1,-14l286 -273c3,-4 10,-4 13,0 4,4 4,10 0,14l-286 273z"/></g></g></svg>